<?xml version="1.0" standalone="no"?>
<!DOCTYPE svg PUBLIC "-//W3C//DTD SVG 20010904//EN"
 "http://www.w3.org/TR/2001/REC-SVG-20010904/DTD/svg10.dtd">
<svg version="1.0" xmlns="http://www.w3.org/2000/svg"
 width="280.000000pt" height="280.000000pt" viewBox="0 0 280.000000 280.000000"
 preserveAspectRatio="xMidYMid meet">
<metadata>
Created by potrace 1.13, written by Peter Selinger 2001-2015
</metadata>
<g transform="translate(0.000000,280.000000) scale(0.100000,-0.100000)"
fill="#000000" stroke="none">
<path d="M1187 2243 c-18 -17 -6 -44 23 -49 41 -9 54 -28 47 -69 -13 -77 -238
-745 -260 -769 -12 -14 -38 -29 -57 -34 -25 -6 -36 -14 -38 -30 l-3 -22 178 2
c176 3 178 3 181 26 3 16 -2 22 -15 22 -27 0 -63 28 -63 50 0 25 87 305 106
342 17 34 41 36 54 6 5 -13 21 -78 35 -146 89 -416 342 -704 638 -728 159 -13
341 67 382 168 13 33 13 38 -1 52 -23 24 -31 21 -87 -35 -67 -66 -117 -91
-198 -97 -144 -10 -313 75 -417 210 -95 124 -184 337 -222 534 l-20 106 29 36
c47 60 282 286 330 318 24 16 71 38 105 49 48 16 61 24 61 40 0 19 -7 20 -155
20 -151 0 -155 -1 -158 -22 -2 -14 3 -23 17 -28 12 -3 21 -13 21 -21 0 -16
-105 -137 -240 -276 -65 -67 -102 -98 -117 -98 -13 0 -23 5 -23 12 0 29 104
330 121 352 12 15 34 27 59 31 34 6 40 11 40 31 l0 24 -173 0 c-96 0 -177 -3
-180 -7z"/>
<path d="M392 1368 c3 -632 3 -633 25 -674 28 -53 91 -107 142 -122 27 -9 217
-12 660 -12 l621 0 0 138 -1 137 -38 18 c-22 10 -60 34 -85 53 l-46 35 0 -106
0 -105 -530 0 -531 0 -24 25 -25 24 0 526 0 525 278 0 279 0 11 38 c7 20 18
58 26 85 l15 47 -390 0 -390 0 3 -632z"/>
</g>
</svg>
