<?xml version="1.0" standalone="no"?>
<!DOCTYPE svg PUBLIC "-//W3C//DTD SVG 20010904//EN"
 "http://www.w3.org/TR/2001/REC-SVG-20010904/DTD/svg10.dtd">
<svg version="1.0" xmlns="http://www.w3.org/2000/svg"
 width="87.000000pt" height="72.000000pt" viewBox="0 0 87.000000 72.000000"
 preserveAspectRatio="xMidYMid meet">
<metadata>
Created by potrace 1.13, written by Peter Selinger 2001-2015
</metadata>
<g transform="translate(0.000000,72.000000) scale(0.100000,-0.100000)"
fill="#000000" stroke="none">
<path d="M100 681 c0 -6 5 -13 10 -16 13 -8 13 -76 -1 -167 -15 -104 -27 -190
-40 -288 -14 -111 -28 -167 -45 -181 -27 -22 -13 -29 56 -29 64 0 86 9 60 25
-13 8 -13 105 -1 193 5 37 15 128 22 202 6 74 14 139 16 144 3 4 11 -5 18 -20
7 -16 22 -50 34 -76 11 -26 21 -54 21 -61 0 -7 4 -17 9 -22 4 -6 30 -66 56
-135 46 -121 78 -199 94 -230 5 -8 19 -16 33 -18 20 -2 28 3 36 25 6 15 36 96
67 178 31 83 60 159 65 170 5 11 23 59 41 108 18 48 36 84 39 80 8 -9 23 -112
45 -314 19 -170 19 -204 0 -223 -8 -8 -15 -17 -15 -20 0 -3 34 -6 75 -6 82 0
81 -1 65 65 -6 22 -14 72 -19 110 -5 39 -18 133 -28 210 -10 77 -18 177 -18
223 l0 83 -73 -3 -74 -3 -33 -95 c-18 -52 -48 -133 -65 -180 -18 -47 -42 -112
-54 -144 -34 -92 -33 -93 -102 80 -19 49 -43 107 -53 129 -10 22 -33 79 -52
127 l-34 88 -77 0 c-43 0 -78 -4 -78 -9z"/>
</g>
</svg>
