<?xml version="1.0" standalone="no"?>
<!DOCTYPE svg PUBLIC "-//W3C//DTD SVG 20010904//EN"
 "http://www.w3.org/TR/2001/REC-SVG-20010904/DTD/svg10.dtd">
<svg version="1.0" xmlns="http://www.w3.org/2000/svg"
 width="225.000000pt" height="225.000000pt" viewBox="0 0 225.000000 225.000000"
 preserveAspectRatio="xMidYMid meet">
<metadata>
Created by potrace 1.13, written by Peter Selinger 2001-2015
</metadata>
<g transform="translate(0.000000,225.000000) scale(0.100000,-0.100000)"
fill="#000000" stroke="none">
<path d="M600 1802 l-155 -27 0 -650 0 -650 170 -28 c93 -15 175 -25 182 -23
11 4 13 137 11 703 l-3 698 -25 2 c-14 1 -95 -11 -180 -25z"/>
<path d="M870 1125 c0 -557 3 -705 13 -705 6 0 48 7 92 15 453 87 1239 235
1248 235 4 0 7 205 7 455 0 250 -4 455 -8 455 -4 0 -127 23 -272 50 -146 28
-314 60 -375 71 -118 22 -264 50 -518 99 -88 16 -165 30 -173 30 -12 0 -14
-107 -14 -705z m181 545 c18 -10 19 -27 19 -545 0 -528 0 -534 -20 -545 -12
-6 -33 -10 -48 -8 l-27 3 -3 540 c-1 297 0 546 3 553 5 15 49 16 76 2z m193
-26 c14 -5 16 -61 16 -520 l0 -514 -24 -6 c-14 -3 -33 -4 -43 -2 -17 3 -18 29
-21 526 l-2 522 29 0 c16 0 36 -3 45 -6z m184 -521 l2 -491 -35 -4 c-20 -2
-38 -2 -40 1 -7 6 -6 986 0 993 3 3 20 2 38 -1 l32 -7 3 -491z m140 469 c10
-7 12 -108 10 -473 l-3 -464 -24 -3 c-13 -2 -28 2 -32 10 -10 15 -12 922 -2
932 9 8 35 7 51 -2z m136 -18 c14 -5 16 -54 16 -449 0 -395 -2 -444 -16 -449
-46 -17 -44 -34 -44 449 0 483 -2 466 44 449z m134 -22 c10 -7 12 -100 10
-433 l-3 -424 -22 -3 -23 -3 0 435 c0 449 0 451 38 428z m127 -427 l0 -410
-22 -3 -23 -3 0 416 0 416 23 -3 22 -3 0 -410z m113 3 l-3 -393 -22 -3 -23 -3
0 395 0 396 25 0 25 0 -2 -392z m86 376 c14 -5 16 -48 16 -379 0 -332 -2 -374
-16 -379 -9 -3 -20 -4 -25 0 -10 6 -13 747 -2 757 8 8 8 8 27 1z"/>
<path d="M172 1732 l-152 -25 2 -581 3 -580 170 -28 c94 -15 173 -28 178 -28
4 0 7 286 7 635 l0 635 -27 -1 c-16 -1 -97 -13 -181 -27z"/>
</g>
</svg>
