<?xml version="1.0" standalone="no"?>
<!DOCTYPE svg PUBLIC "-//W3C//DTD SVG 20010904//EN"
 "http://www.w3.org/TR/2001/REC-SVG-20010904/DTD/svg10.dtd">
<svg version="1.0" xmlns="http://www.w3.org/2000/svg"
 width="225.000000pt" height="225.000000pt" viewBox="0 0 225.000000 225.000000"
 preserveAspectRatio="xMidYMid meet">
<metadata>
Created by potrace 1.13, written by Peter Selinger 2001-2015
</metadata>
<g transform="translate(0.000000,225.000000) scale(0.100000,-0.100000)"
fill="#000000" stroke="none">
<path d="M640 2055 c-140 -69 -327 -161 -415 -204 l-160 -79 115 -55 c63 -30
257 -122 431 -204 l316 -150 414 199 c227 109 417 202 421 206 6 6 -775 379
-852 407 -8 3 -130 -51 -270 -120z"/>
<path d="M62 1228 l3 -483 415 -217 415 -217 3 497 c1 272 -1 499 -5 503 -5 4
-181 89 -393 189 -212 100 -397 189 -413 196 l-27 15 2 -483z"/>
<path d="M1360 1510 l-415 -198 -3 -502 -2 -502 187 98 c104 53 221 115 260
136 l73 40 -15 27 c-43 85 -39 230 10 339 48 105 181 212 287 228 l38 7 0 263
c0 145 -1 264 -2 263 -2 0 -190 -90 -418 -199z"/>
<path d="M1703 1099 c-71 -28 -155 -106 -190 -177 -25 -50 -28 -68 -28 -152 0
-88 3 -101 33 -162 37 -77 90 -128 172 -167 47 -22 68 -26 145 -26 76 0 99 5
147 27 73 34 142 104 175 175 31 67 41 176 23 242 l-12 44 -166 -166 -167
-167 -125 125 -124 125 34 35 34 35 91 -90 90 -90 140 140 139 140 -34 35
c-59 61 -130 89 -234 92 -73 3 -101 -1 -143 -18z"/>
</g>
</svg>
