<?xml version="1.0" standalone="no"?>
<!DOCTYPE svg PUBLIC "-//W3C//DTD SVG 20010904//EN"
 "http://www.w3.org/TR/2001/REC-SVG-20010904/DTD/svg10.dtd">
<svg version="1.0" xmlns="http://www.w3.org/2000/svg"
 width="225.000000pt" height="225.000000pt" viewBox="0 0 225.000000 225.000000"
 preserveAspectRatio="xMidYMid meet">
<metadata>
Created by potrace 1.13, written by Peter Selinger 2001-2015
</metadata>
<g transform="translate(0.000000,225.000000) scale(0.100000,-0.100000)"
fill="#000000" stroke="none">
<path d="M421 2093 c-21 -20 -68 -116 -160 -324 l-131 -297 0 -165 c0 -162 0
-166 25 -196 14 -16 41 -35 60 -41 l35 -12 0 -415 c0 -459 1 -464 63 -498 26
-14 52 -16 139 -13 102 3 109 4 135 31 l28 27 5 343 5 342 93 3 92 3 0 -321
c0 -348 3 -367 55 -408 28 -22 30 -22 537 -22 452 0 513 2 537 16 57 34 56 24
61 488 l5 430 32 8 c17 4 43 22 57 39 26 30 26 33 26 196 l0 165 -131 297
c-72 163 -142 307 -155 321 l-24 25 -680 3 -679 2 -30 -27z m333 -115 c-4 -13
-46 -138 -94 -278 l-87 -255 -161 -3 -162 -2 19 42 c10 24 64 145 120 271 55
125 101 232 101 237 0 6 54 10 136 10 l135 0 -7 -22z m342 -223 c0 -132 -2
-257 -4 -277 l-5 -38 -227 0 -228 0 80 233 c44 127 87 253 95 280 l15 48 136
-3 137 -3 1 -240z m399 43 c38 -112 81 -238 96 -280 l28 -78 -234 0 -235 0 0
280 1 280 138 0 139 0 67 -202z m381 -78 l122 -275 -156 -3 c-85 -1 -159 1
-162 5 -4 5 -47 125 -95 268 -49 143 -90 266 -93 273 -3 10 24 12 129 10 l132
-3 123 -275z m124 -435 l0 -95 -875 0 -875 0 0 95 0 95 875 0 875 0 0 -95z
m-122 -597 l2 -438 -470 0 -470 0 0 375 0 375 -220 0 -220 0 0 -375 0 -375
-65 0 -65 0 0 433 c0 239 3 437 7 440 3 4 342 6 752 5 l746 -3 3 -437z"/>
<path d="M1060 690 l0 -310 345 0 345 0 0 310 0 310 -345 0 -345 0 0 -310z"/>
</g>
</svg>
